<svg xmlns="http://www.w3.org/2000/svg" viewBox="0 0 100 100">
  <defs>
    <linearGradient id="bks-gradient" x1="0%" y1="0%" x2="100%" y2="100%">
      <stop offset="0%" style="stop-color:#667eea"/>
      <stop offset="100%" style="stop-color:#764ba2"/>
    </linearGradient>
  </defs>
  <!-- Brain outline (simplified) -->
  <path d="M30 70 C15 70 10 55 15 45 C10 40 10 30 20 25 C20 15 35 10 45 15 C50 10 60 10 65 15 C75 10 90 20 85 35 C95 45 90 60 80 65 C85 75 75 85 60 80 C55 85 45 85 40 80 C30 85 20 80 30 70"
        fill="none"
        stroke="url(#bks-gradient)"
        stroke-width="4"
        stroke-linecap="round"/>
  <!-- Circuit elements -->
  <circle cx="70" cy="35" r="4" fill="url(#bks-gradient)"/>
  <circle cx="70" cy="55" r="3" fill="url(#bks-gradient)"/>
  <line x1="70" y1="39" x2="70" y2="52" stroke="url(#bks-gradient)" stroke-width="2"/>
  <line x1="70" y1="58" x2="70" y2="70" stroke="url(#bks-gradient)" stroke-width="2"/>
</svg>
